HIERARCHY
ROOT Hips
{
	OFFSET 0.000000 0.000000 0.000000
	CHANNELS 6 Xposition Yposition Zposition Zrotation Yrotation Xrotation 
	JOINT LHipJoint
	{
		OFFSET 0.000000 0.000000 0.000000
		CHANNELS 3 Zrotation Yrotation Xrotation
		JOINT LeftUpLeg
		{
			OFFSET 1.363060 -1.794630 0.839290
			CHANNELS 3 Zrotation Yrotation Xrotation
			JOINT LeftLeg
			{
				OFFSET 2.448110 -6.726130 0.000000
				CHANNELS 3 Zrotation Yrotation Xrotation
				JOINT LeftFoot
				{
					OFFSET 2.562200 -7.039590 0.000000
					CHANNELS 3 Zrotation Yrotation Xrotation
					JOINT LeftToeBase
					{
						OFFSET 0.157640 -0.433110 2.322550
						CHANNELS 3 Zrotation Yrotation Xrotation
						End Site
						{
							OFFSET 0.000000 0.000000 0.000000
						}
					}
				}
			}
		}
	}
	JOINT RHipJoint
	{
		OFFSET 0.000000 0.000000 0.000000
		CHANNELS 3 Zrotation Yrotation Xrotation
		JOINT RightUpLeg
		{
			OFFSET -1.305520 -1.794630 0.839290
			CHANNELS 3 Zrotation Yrotation Xrotation
			JOINT RightLeg
			{
				OFFSET -2.542530 -6.985550 0.000000
				CHANNELS 3 Zrotation Yrotation Xrotation
				JOINT RightFoot
				{
					OFFSET -2.568260 -7.056230 0.000000
					CHANNELS 3 Zrotation Yrotation Xrotation
					JOINT RightToeBase
					{
						OFFSET -0.164730 -0.452590 2.363150
						CHANNELS 3 Zrotation Yrotation Xrotation
						End Site
						{
							OFFSET 0.000000 0.000000 0.000000
						}
					}
				}
			}
		}
	}
	JOINT LowerBack
	{
		OFFSET 0.000000 0.000000 0.000000
		CHANNELS 3 Zrotation Yrotation Xrotation
		JOINT Spine
		{
			OFFSET 0.028270 2.035590 -0.193380
			CHANNELS 3 Zrotation Yrotation Xrotation
			JOINT Spine1
			{
				OFFSET 0.056720 2.048850 -0.042750
				CHANNELS 3 Zrotation Yrotation Xrotation
				JOINT Neck
				{
					OFFSET 0.000000 0.000000 0.000000
					CHANNELS 3 Zrotation Yrotation Xrotation
					JOINT Neck1
					{
						OFFSET -0.054170 1.746240 0.172020
						CHANNELS 3 Zrotation Yrotation Xrotation
						JOINT Head
						{
							OFFSET 0.104070 1.761360 -0.123970
							CHANNELS 3 Zrotation Yrotation Xrotation
							End Site
							{
								OFFSET 0.000000 0.000000 0.000000
							}
						}
					}
				}
				JOINT LeftShoulder
				{
					OFFSET 0.000000 0.000000 0.000000
					CHANNELS 3 Zrotation Yrotation Xrotation
					JOINT LeftArm
					{
						OFFSET 3.362410 1.200890 -0.311210
						CHANNELS 3 Zrotation Yrotation Xrotation
						JOINT LeftForeArm
						{
							OFFSET 4.983000 -0.000000 -0.000000
							CHANNELS 3 Zrotation Yrotation Xrotation
							JOINT LeftHand
							{
								OFFSET 3.483560 -0.000000 -0.000000
								CHANNELS 3 Zrotation Yrotation Xrotation
								JOINT LeftFingerBase
								{
									OFFSET 0.000000 0.000000 0.000000
									CHANNELS 3 Zrotation Yrotation Xrotation
									JOINT LeftHandIndex1
									{
										OFFSET 0.715260 -0.000000 -0.000000
										CHANNELS 3 Zrotation Yrotation Xrotation
										End Site
										{
											OFFSET 0.000000 0.000000 0.000000
										}
									}
								}
								JOINT LThumb
								{
									OFFSET 0.000000 0.000000 0.000000
									CHANNELS 3 Zrotation Yrotation Xrotation
									End Site
									{
										OFFSET 0.000000 0.000000 0.000000
									}
								}
							}
						}
					}
				}
				JOINT RightShoulder
				{
					OFFSET 0.000000 0.000000 0.000000
					CHANNELS 3 Zrotation Yrotation Xrotation
					JOINT RightArm
					{
						OFFSET -3.136600 1.374050 -0.404650
						CHANNELS 3 Zrotation Yrotation Xrotation
						JOINT RightForeArm
						{
							OFFSET -5.241900 -0.000000 -0.000000
							CHANNELS 3 Zrotation Yrotation Xrotation
							JOINT RightHand
							{
								OFFSET -3.444170 -0.000000 -0.000000
								CHANNELS 3 Zrotation Yrotation Xrotation
								JOINT RightFingerBase
								{
									OFFSET 0.000000 0.000000 0.000000
									CHANNELS 3 Zrotation Yrotation Xrotation
									JOINT RightHandIndex1
									{
										OFFSET -0.622530 -0.000000 -0.000000
										CHANNELS 3 Zrotation Yrotation Xrotation
										End Site
										{
											OFFSET 0.000000 0.000000 0.000000
										}
									}
								}
								JOINT RThumb
								{
									OFFSET 0.000000 0.000000 0.000000
									CHANNELS 3 Zrotation Yrotation Xrotation
									End Site
									{
										OFFSET 0.000000 0.000000 0.000000
									}
								}
							}
						}
					}
				}
			}
		}
	}
}
MOTION
Frames: 11
Frame Time: 0.008333
3.920106 15.966225 -3.304164 -169.958434 62.132684 -143.810563 -10.276607 -2.616204 -2.504793 -18.274886 9.016117 -69.901288 -2.145429 4.268642 48.321430 4.325999 17.205641 -17.635001 -2.092200 0.000000 -2.108000 8.796205 -0.064243 -6.357651 4.547656 -18.126281 -38.382796 0.520446 -5.003634 59.734108 0.271444 7.741251 9.703058 2.236800 -0.000001 -92.528600 1.078960 0.131939 12.130710 -0.662093 0.274012 -0.724093 -5.889305 0.270960 -0.973351 7.762345 -5.274463 -5.165014 -1.987630 -0.154309 0.229820 0.000000 0.000000 0.000000 0.530270 8.660842 3.410994 -76.231662 16.402334 13.059535 -1.541974 -55.255280 0.005854 -4.509890 6.134438 -0.240943 0.019616 0.044056 0.000000 0.000000 0.000000 0.000000 0.000000 0.000000 0.000000 4.490064 0.068904 -1.142873 67.654860 13.721917 9.305021 179.844602 84.843981 179.973031 -3.669982 3.956009 -0.142620 0.030580 -0.467369 -0.000000 0.000000 0.000000 0.000000 0.000000 0.000000 0.000000 
3.994636 15.926698 -3.415655 -169.450316 62.003635 -143.756046 -10.327239 -2.669778 -2.618239 -17.957221 9.235665 -69.786094 -2.013273 4.412753 50.035608 4.326201 17.246349 -18.438040 -2.397500 0.000000 -1.452100 8.863668 -0.076948 -6.359755 4.039530 -18.303795 -37.860792 0.432300 -5.013744 60.245906 0.281714 8.684754 11.048559 2.713200 -0.000000 -93.560900 0.905277 0.099530 12.256669 -0.716198 0.242994 -0.717408 -5.979977 0.241938 -1.038505 7.900832 -5.211621 -5.132263 -2.010990 -0.156336 0.240142 0.000000 0.000000 0.000000 0.637559 8.403694 3.417790 -76.091346 16.094308 12.934498 -1.560393 -55.153525 0.005741 -4.455882 6.109781 -0.236932 0.018018 0.045207 0.000000 0.000000 0.000000 0.000000 0.000000 0.000000 0.000000 4.689939 0.137158 -1.117770 68.140846 13.333874 9.549502 179.853529 85.212419 179.973795 -3.563746 3.939439 -0.137819 0.026950 -0.464828 -0.000000 0.000000 0.000000 0.000000 0.000000 0.000000 0.000000 
4.069143 15.889718 -3.525119 -169.048636 61.818583 -143.783456 -10.371715 -2.709623 -2.729971 -17.702619 9.413849 -69.606447 -1.894021 4.537174 51.631565 4.342427 17.333860 -19.330383 -2.738001 -0.000000 -1.108800 8.931803 -0.085230 -6.355393 3.511520 -18.450092 -37.336544 0.347717 -5.020187 60.734453 0.279117 9.599109 12.383811 3.220200 -0.000000 -94.305500 0.728340 0.061979 12.378692 -0.771390 0.206147 -0.710923 -6.072776 0.207097 -1.102595 8.033465 -5.150820 -5.088398 -2.038123 -0.158750 0.253222 0.000000 0.000000 0.000000 0.737186 8.109283 3.422336 -75.875202 15.694289 12.846859 -1.584377 -55.006767 0.005609 -4.415508 6.098894 -0.234220 0.016085 0.046329 0.000000 0.000000 0.000000 0.000000 0.000000 0.000000 0.000000 4.904909 0.191689 -1.092759 68.659619 12.910208 9.747086 179.864123 85.630910 179.974479 -3.467932 3.926977 -0.133518 0.023295 -0.462079 -0.000000 0.000000 0.000000 0.000000 0.000000 0.000000 0.000000 
4.143496 15.855597 -3.632970 -168.739944 61.575509 -143.876070 -10.412652 -2.737023 -2.834901 -17.494516 9.541504 -69.354110 -1.788054 4.639248 53.078912 4.372936 17.462716 -20.284208 -3.105700 0.000000 -1.043300 8.998033 -0.090867 -6.345831 2.979953 -18.563838 -36.813739 0.267606 -5.022593 61.194523 0.264266 10.462598 13.701140 3.746300 0.000000 -94.875200 0.556688 0.021153 12.492875 -0.825554 0.165257 -0.704030 -6.166119 0.168243 -1.160237 8.155997 -5.097448 -5.038113 -2.068825 -0.161467 0.267749 0.000000 0.000000 0.000000 0.828452 7.801229 3.423949 -75.587824 15.178783 12.797994 -1.614446 -54.799770 0.005440 -4.379726 6.099839 -0.232206 0.013658 0.047485 0.000000 0.000000 0.000000 0.000000 0.000000 0.000000 0.000000 5.131438 0.226909 -1.069494 69.205993 12.457173 9.896638 179.876246 86.102142 179.975107 -3.379275 3.922226 -0.129719 0.019580 -0.459120 -0.000000 0.000000 0.000000 0.000000 0.000000 0.000000 0.000000 
4.217611 15.824553 -3.739510 -168.510174 61.275636 -144.017597 -10.452518 -2.753655 -2.928575 -17.315512 9.612053 -69.026618 -1.695079 4.718048 54.361217 4.414873 17.623555 -21.270597 -3.491900 -0.000001 -1.189400 9.060279 -0.095725 -6.331918 2.461588 -18.642005 -36.297059 0.191896 -5.020846 61.628250 0.238268 11.254957 14.990708 4.278300 0.000000 -95.177500 0.398388 -0.020703 12.595046 -0.876692 0.122556 -0.697008 -6.258425 0.127568 -1.209086 8.263785 -5.054105 -4.983821 -2.102805 -0.164435 0.283138 0.000000 0.000000 0.000000 0.906777 7.490069 3.421982 -75.237200 14.544578 12.769684 -1.650153 -54.531307 0.005213 -4.338719 6.112257 -0.230290 0.010655 0.048715 0.000000 0.000000 0.000000 0.000000 0.000000 0.000000 0.000000 5.364492 0.240632 -1.048245 69.774419 11.978182 9.997698 179.889699 86.629112 179.975704 -3.294783 3.927995 -0.126420 0.015794 -0.455941 -0.000000 0.000000 0.000000 0.000000 0.000000 0.000000 0.000000 
4.291374 15.796607 -3.845053 -168.342908 60.921950 -144.190445 -10.493647 -2.761702 -3.007472 -17.148586 9.620629 -68.626446 -1.613933 4.773998 55.475218 4.464668 17.804749 -22.261400 -3.886599 -0.000000 -1.469000 9.116784 -0.101334 -6.314176 1.971420 -18.680848 -35.792487 0.119970 -5.014997 62.040854 0.202309 11.957072 16.245440 4.801300 -0.000000 -95.135701 0.260368 -0.061537 12.681721 -0.923012 0.080156 -0.690102 -6.348015 0.087150 -1.247292 8.352748 -5.022413 -4.928070 -2.139682 -0.167596 0.298761 0.000000 0.000000 0.000000 0.968557 7.186065 3.415930 -74.834750 13.791568 12.739987 -1.690711 -54.203479 0.004920 -4.280854 6.135903 -0.227770 0.007006 0.050076 0.000000 0.000000 0.000000 0.000000 0.000000 0.000000 0.000000 5.599170 0.231977 -1.028915 70.358405 11.477348 10.051334 179.904294 87.215637 179.976289 -3.211942 3.946012 -0.123522 0.011956 -0.452515 -0.000000 0.000000 0.000000 0.000000 0.000000 0.000000 0.000000 
4.364634 15.771700 -3.949958 -168.222915 60.517702 -144.379989 -10.537686 -2.763290 -3.069583 -16.980783 9.563822 -68.158202 -1.542805 4.808329 56.428217 4.518579 17.994697 -23.231738 -4.280000 0.000001 -1.793900 9.166256 -0.108361 -6.293231 1.520958 -18.681486 -35.303414 0.051801 -5.004368 62.425258 0.156238 12.549242 17.484809 5.305000 0.000000 -95.021700 0.146556 -0.100195 12.751444 -0.963223 0.039347 -0.682610 -6.432742 0.048355 -1.271244 8.419734 -5.004720 -4.875473 -2.178726 -0.170830 0.313334 0.000000 0.000000 0.000000 1.014761 6.910746 3.405503 -74.394446 12.909162 12.696520 -1.735691 -53.812070 0.004532 -4.191749 6.169670 -0.223948 0.002593 0.051661 0.000000 0.000000 0.000000 0.000000 0.000000 0.000000 0.000000 5.830436 0.199281 -1.012308 70.950879 10.963303 10.062032 179.919910 87.866313 179.976870 -3.130391 3.976740 -0.120925 0.008125 -0.448778 -0.000000 0.000000 0.000000 0.000000 0.000000 0.000000 0.000000 
4.437352 15.749732 -4.054277 -168.139629 60.069719 -144.575862 -10.585599 -2.760341 -3.113776 -16.801659 9.441504 -67.631789 -1.479647 4.823423 57.235532 4.573162 18.183218 -24.160553 -4.662800 -0.000000 -2.086700 9.208328 -0.117532 -6.269002 1.119842 -18.639237 -34.836193 -0.013983 -4.989492 62.794216 0.101367 13.019830 18.701315 5.775300 0.000000 -94.648900 0.059144 -0.135311 12.802558 -0.996512 0.001662 -0.675108 -6.510938 0.012664 -1.281949 8.462284 -4.998619 -4.826346 -2.219396 -0.174102 0.326855 0.000000 0.000000 0.000000 1.042350 6.664154 3.390437 -73.931075 11.913194 12.605954 -1.783395 -53.371339 0.004039 -4.059884 6.215106 -0.218223 -0.002565 0.053517 0.000000 0.000000 0.000000 0.000000 0.000000 0.000000 0.000000 6.053774 0.146141 -0.997196 71.544983 10.439534 10.033276 179.936420 88.585663 179.977446 -3.050936 4.019823 -0.118828 0.004395 -0.444687 -0.000000 0.000000 0.000000 0.000000 0.000000 0.000000 0.000000 
4.509348 15.730469 -4.158194 -168.079045 59.582982 -144.765483 -10.638025 -2.754735 -3.139804 -16.605131 9.255526 -67.060041 -1.421987 4.822074 57.918826 4.625648 18.362722 -25.032460 -5.027400 0.000000 -2.284700 9.242675 -0.129171 -6.240928 0.774867 -18.552051 -34.397399 -0.078115 -4.970528 63.153076 0.038087 13.359086 19.903547 6.201700 0.000000 -93.991100 -0.001329 -0.165897 12.833997 -1.022482 -0.031714 -0.667876 -6.581338 -0.018745 -1.279893 8.479007 -5.002441 -4.781623 -2.261051 -0.177358 0.339117 0.000000 0.000000 0.000000 1.051596 6.449753 3.370326 -73.459498 10.815579 12.444805 -1.832114 -52.894160 0.003422 -3.872938 6.272879 -0.209595 -0.008449 0.055711 0.000000 0.000000 0.000000 0.000000 0.000000 0.000000 0.000000 6.265387 0.075456 -0.982599 72.133549 9.910837 9.970312 179.953747 89.377866 179.978009 -2.975953 4.073231 -0.117031 0.000892 -0.440172 -0.000000 0.000000 0.000000 0.000000 0.000000 0.000000 0.000000 
4.580544 15.713784 -4.261688 -168.036943 59.063652 -144.946269 -10.694402 -2.747624 -3.149130 -16.390507 9.010239 -66.454831 -1.367882 4.807254 58.500750 4.674044 18.528466 -25.838487 -5.368500 -0.000000 -2.352400 9.269774 -0.142651 -6.209044 0.488262 -18.421551 -33.990333 -0.140744 -4.947531 63.501384 -0.033772 13.557571 21.104722 6.574900 -0.000000 -93.242600 -0.037773 -0.191885 12.847416 -1.041460 -0.060489 -0.660741 -6.642700 -0.045572 -1.266161 8.470159 -5.013309 -4.741486 -2.303113 -0.180556 0.350052 0.000000 0.000000 0.000000 1.044494 6.268832 3.344965 -72.993472 9.629570 12.192787 -1.880007 -52.395636 0.002665 -3.620952 6.343259 -0.197666 -0.015001 0.058312 0.000000 0.000000 0.000000 0.000000 0.000000 0.000000 0.000000 6.463431 -0.008945 -0.967403 72.709701 9.382908 9.879385 -0.027970 89.753125 -0.021310 -2.909690 4.134720 -0.115734 -0.002234 -0.435177 -0.000000 0.000000 0.000000 0.000000 0.000000 0.000000 0.000000 
4.650839 15.699520 -4.364633 -168.007870 58.517406 -145.114315 -10.753977 -2.739694 -3.143533 -16.160485 8.712912 -65.829925 -1.315703 4.782099 59.004068 4.717133 18.677954 -26.574382 -5.683100 -0.000000 -2.284900 9.290588 -0.157814 -6.172844 0.260116 -18.246322 -33.621399 -0.202899 -4.921834 63.855028 -0.112863 13.616094 22.292625 6.883799 -0.000000 -91.990600 -0.053943 -0.213141 12.843912 -1.054080 -0.084328 -0.653990 -6.694446 -0.067515 -1.243074 8.436922 -5.027146 -4.704712 -2.345122 -0.183685 0.360013 0.000000 0.000000 0.000000 1.023213 6.116634 3.314084 -72.543997 8.375121 11.832141 -1.924912 -51.896670 0.001754 -3.297708 6.425898 -0.181836 -0.022104 0.061369 0.000000 0.000000 0.000000 0.000000 0.000000 0.000000 0.000000 6.646966 -0.101843 -0.950061 73.266968 8.859833 9.766377 -0.009157 88.804434 -0.020984 -2.857095 4.201531 -0.115037 -0.004832 -0.429660 -0.000000 0.000000 0.000000 0.000000 0.000000 0.000000 0.000000 
